<svg version="1.1" id="Layer_1" xmlns="http://www.w3.org/2000/svg" xmlns:xlink="http://www.w3.org/1999/xlink" x="0px" y="0px"
    viewBox="0 0 76.9 77" style="enable-background:new 0 0 76.9 77; width:100px; " xml:space="preserve">
<style type="text/css">
   .st0{fill:#0056E9;}
   .st1{fill:#FFFFFF;}
   .st2{fill:url(#SVGID_1_);}
</style>
<path class="st0" d="M11.4,0.7c18-1,36-1,54,0C70.9,1.1,75.8,6,76.1,11.5c1,18.1,1,36,0,54.1c-0.3,5.5-5.2,10.4-10.7,10.7
   c-18,1-36,1-54,0C6,76,1.1,71.1,0.8,65.6c-1-18.1-1-36,0-54.1C1.1,6,6,1.1,11.4,0.7z"/>
<g>
   <g>
      <path class="st1" d="M23.4,38.3l-4-4c-3.1-3.1-3.1-8.1,0-11.2l4-4c3.1-3.1,8.1-3.1,11.2,0l4,4c3.1,3.1,3.1,8.1,0,11.2l-4,4
         C31.5,41.4,26.5,41.4,23.4,38.3z M31.2,22.6c-1.2-1.2-3.1-1.2-4.3,0l-4,4c-1.2,1.2-1.2,3.1,0,4.3l4,4c1.2,1.2,3.1,1.2,4.3,0l4-4
         c1.2-1.2,1.2-3.1,0-4.3L31.2,22.6z"/>
   </g>
   <g>
      <path class="st1" d="M43,37.9l-4-4c-3.1-3.1-3.1-8.1,0-11.2l4-4c3.1-3.1,8.1-3.1,11.2,0l4,4c3.1,3.1,3.1,8.1,0,11.2l-4,4
         C51.1,41,46.1,41,43,37.9z M50.8,22.2c-1.2-1.2-3.1-1.2-4.3,0l-4,4c-1.2,1.2-1.2,3.1,0,4.3l4,4c1.2,1.2,3.1,1.2,4.3,0l4-4
         c1.2-1.2,1.2-3.1,0-4.3L50.8,22.2z"/>
   </g>
   <g>
      <path class="st1" d="M42.6,57.6l-4-4c-3.1-3.1-3.1-8.1,0-11.2l4-4c3.1-3.1,8.1-3.1,11.2,0l4,4c3.1,3.1,3.1,8.1,0,11.2l-4,4
         C50.8,60.7,45.7,60.7,42.6,57.6z M50.4,41.8c-1.2-1.2-3.1-1.2-4.3,0l-4,4c-1.2,1.2-1.2,3.1,0,4.3l4,4c1.2,1.2,3.1,1.2,4.3,0l4-4
         c1.2-1.2,1.2-3.1,0-4.3L50.4,41.8z"/>
   </g>
   <g>
      
         <linearGradient id="SVGID_1_" gradientUnits="userSpaceOnUse" x1="227.8476" y1="-202.7698" x2="227.8476" y2="-224.8009" gradientTransform="matrix(0.7071 0.7071 -0.7071 0.7071 -281.6562 36.3956)">
         <stop  offset="0" style="stop-color:#FFFFFF"/>
         <stop  offset="1" style="stop-color:#FFFFFF;stop-opacity:0"/>
      </linearGradient>
      <path class="st2" d="M22.7,58.3l-4-4c-3.1-3.1-3.1-8.1,0-11.2l4-4c3.1-3.1,8.1-3.1,11.2,0l4,4c3.1,3.1,3.1,8.1,0,11.2l-4,4
         C30.8,61.4,25.8,61.4,22.7,58.3z M30.5,42.5c-1.2-1.2-3.1-1.2-4.3,0l-4,4c-1.2,1.2-1.2,3.1,0,4.3l4,4c1.2,1.2,3.1,1.2,4.3,0l4-4
         c1.2-1.2,1.2-3.1,0-4.3L30.5,42.5z"/>
   </g>
</g>
</svg>